# xmcd
#
# Track frame offsets: 
#        150
#        19457
#        43487
#        59701
#        84198
#        105198
#        126637
#        148264
#        168929
#        192659
#        219413
#
# Disc length: 3154 seconds
#
# Revision: 0
# Processed by: cddbd v1.5.2PL0 Copyright (c) Steve Scherf et al.
# Submitted via: ExactAudioCopy v1.3
#
DISCID=aa0c500b
DTITLE=The Lucky Losers - In Any Town
DYEAR=2016
DGENRE=Modern Electric Blues
TTITLE0=So High
TTITLE1=It Ain't Enough
TTITLE2=Jackson
TTITLE3=Don't Let 'em See Ya Cry
TTITLE4=Blind Man In The Dark
TTITLE5=I Can't Change Ya
TTITLE6=Still Enough Time To Cry
TTITLE7=Give Me A Sign
TTITLE8=In Any Town
TTITLE9=Devil's Dream
TTITLE10=Small Town Talk
EXTD=
EXTT0=
EXTT1=
EXTT2=
EXTT3=
EXTT4=
EXTT5=
EXTT6=
EXTT7=
EXTT8=
EXTT9=
EXTT10=
PLAYORDER=
